Normalized EMG Linear Envelopes
nRows=140
nColumns=4

endheader
time	 med_gas_r	  soleus_r	 tib_ant_r	
2.99981	  0.161873	  0.120049	  0.091390	
3.0623	  0.168109	  0.118332	  0.087633	
3.1248	  0.169664	  0.115600	  0.082613	
3.1873	  0.165383	  0.114693	  0.078322	
3.24979	  0.164964	  0.116013	  0.076244	
3.31229	  0.166022	  0.120731	  0.077549	
3.37478	  0.163004	  0.126620	  0.081229	
3.43728	  0.164530	  0.130789	  0.084628	
3.49978	  0.166972	  0.134941	  0.085125	
3.56227	  0.166069	  0.135264	  0.082180	
3.62477	  0.172457	  0.132295	  0.076868	
3.68726	  0.182178	  0.130418	  0.073145	
3.74976	  0.192418	  0.130531	  0.075721	
3.81226	  0.198626	  0.131304	  0.086133	
3.87475	  0.201276	  0.133834	  0.106746	
3.93725	  0.210475	  0.140043	  0.140745	
3.99974	  0.217770	  0.147943	  0.186419	
4.06224	  0.229815	  0.154478	  0.242068	
4.12474	  0.250553	  0.157903	  0.315766	
4.18723	  0.285408	  0.160545	  0.412134	
4.24973	  0.328042	  0.167362	  0.516851	
4.31222	  0.355892	  0.179853	  0.617506	
4.37472	  0.373076	  0.192367	  0.698001	
4.43722	  0.380905	  0.196670	  0.740062	
4.49971	  0.381451	  0.189834	  0.762015	
4.56221	  0.371169	  0.182340	  0.755138	
4.6247	  0.359754	  0.182792	  0.716271	
4.6872	  0.355442	  0.195342	  0.694605	
4.7497	  0.355141	  0.212486	  0.697825	
4.81219	  0.362333	  0.221152	  0.711319	
4.87469	  0.394878	  0.221049	  0.747270	
4.93718	  0.447472	  0.221341	  0.813705	
4.99968	  0.498952	  0.224054	  0.872263	
5.06218	  0.543857	  0.225657	  0.908011	
5.12467	  0.559154	  0.229669	  0.930684	
5.18717	  0.544632	  0.234592	  0.952972	
5.24966	  0.523846	  0.239650	  0.976914	
5.31216	  0.513303	  0.251694	  0.992820	
5.37466	  0.515918	  0.274670	  0.971985	
5.43715	  0.528777	  0.313213	  0.915332	
5.49965	  0.542693	  0.357780	  0.853890	
5.56214	  0.563185	  0.388406	  0.805813	
5.62464	  0.601884	  0.411255	  0.758321	
5.68714	  0.651218	  0.445290	  0.723792	
5.74963	  0.700388	  0.498519	  0.727309	
5.81213	  0.741538	  0.550494	  0.766071	
5.87462	  0.760654	  0.593894	  0.809538	
5.93712	  0.739613	  0.610240	  0.818906	
5.99962	  0.680095	  0.583146	  0.789354	
6.06211	  0.623683	  0.526726	  0.748723	
6.12461	  0.576185	  0.480030	  0.717572	
6.1871	  0.549029	  0.463283	  0.715369	
6.2496	  0.540642	  0.472748	  0.739477	
6.3121	  0.551848	  0.487242	  0.755960	
6.37459	  0.585552	  0.498756	  0.753852	
6.43709	  0.637683	  0.510468	  0.741538	
6.49958	  0.681694	  0.515358	  0.728879	
6.56208	  0.696832	  0.516480	  0.716651	
6.62458	  0.664218	  0.509503	  0.695707	
6.68707	  0.600757	  0.497229	  0.650572	
6.74957	  0.552505	  0.500007	  0.602061	
6.81206	  0.540339	  0.522453	  0.596866	
6.87456	  0.567683	  0.543409	  0.648415	
6.93706	  0.592502	  0.550376	  0.712552	
6.99955	  0.589716	  0.548450	  0.740815	
7.06205	  0.561147	  0.544407	  0.722722	
7.12454	  0.542222	  0.525566	  0.690163	
7.18704	  0.542509	  0.513568	  0.671735	
7.24954	  0.557827	  0.512223	  0.680388	
7.31203	  0.578505	  0.516211	  0.708813	
7.37453	  0.589623	  0.531818	  0.741884	
7.43702	  0.580207	  0.571703	  0.767630	
7.49952	  0.559467	  0.622566	  0.786375	
7.56202	  0.536659	  0.645592	  0.796581	
7.62451	  0.507130	  0.631738	  0.798000	
7.68701	  0.488484	  0.618557	  0.778616	
7.7495	  0.487326	  0.629039	  0.759899	
7.812	  0.495818	  0.651136	  0.761720	
7.8745	  0.505558	  0.676129	  0.750764	
7.93699	  0.512159	  0.668725	  0.704427	
7.99949	  0.507872	  0.634579	  0.645961	
8.06198	  0.503610	  0.601464	  0.591256	
8.12448	  0.519123	  0.587933	  0.549547	
8.18698	  0.543697	  0.601137	  0.531061	
8.24947	  0.566960	  0.621815	  0.534831	
8.31197	  0.569778	  0.637103	  0.558308	
8.37446	  0.557575	  0.655011	  0.583746	
8.43696	  0.544711	  0.692738	  0.622645	
8.49946	  0.539192	  0.725399	  0.683908	
8.56195	  0.545090	  0.719414	  0.763622	
8.62445	  0.554964	  0.715159	  0.828094	
8.68694	  0.551002	  0.734344	  0.853791	
8.74944	  0.535452	  0.741784	  0.824809	
8.81194	  0.520755	  0.729211	  0.775153	
8.87443	  0.518129	  0.713006	  0.726508	
8.93693	  0.528761	  0.709260	  0.688151	
8.99942	  0.537316	  0.703166	  0.656618	
9.06192	  0.542302	  0.699831	  0.623602	
9.12442	  0.556339	  0.709635	  0.594506	
9.18691	  0.572007	  0.722775	  0.584709	
9.24941	  0.565911	  0.733390	  0.594138	
9.3119	  0.534916	  0.746337	  0.620889	
9.3744	  0.495611	  0.748817	  0.658628	
9.4369	  0.468624	  0.744345	  0.687285	
9.49939	  0.472315	  0.726379	  0.690498	
9.56189	  0.490169	  0.687843	  0.675621	
9.62438	  0.498411	  0.660675	  0.653760	
9.68688	  0.500379	  0.656368	  0.623064	
9.74938	  0.504373	  0.654213	  0.604043	
9.81187	  0.505019	  0.657731	  0.601275	
9.87437	  0.516361	  0.672441	  0.583706	
9.93686	  0.532262	  0.685230	  0.569035	
9.99936	  0.546346	  0.687787	  0.560301	
10.0619	  0.555309	  0.676952	  0.546132	
10.1244	  0.551372	  0.672593	  0.522510	
10.1868	  0.522667	  0.674121	  0.496914	
10.2493	  0.497594	  0.683788	  0.473958	
10.3118	  0.480576	  0.717845	  0.453353	
10.3743	  0.470717	  0.746952	  0.434182	
10.4368	  0.476456	  0.736226	  0.440787	
10.4993	  0.475072	  0.685161	  0.469121	
10.5618	  0.449949	  0.584526	  0.488320	
10.6243	  0.408409	  0.436998	  0.487132	
10.6868	  0.358901	  0.292677	  0.453586	
10.7493	  0.307101	  0.195811	  0.383801	
10.8118	  0.252293	  0.144961	  0.311533	
10.8743	  0.212905	  0.124011	  0.262371	
10.9368	  0.208361	  0.119804	  0.234950	
10.9993	  0.226776	  0.123358	  0.223555	
11.0618	  0.248813	  0.126885	  0.224599	
11.1243	  0.277735	  0.126198	  0.237821	
11.1868	  0.319142	  0.122404	  0.259458	
11.2493	  0.368706	  0.117591	  0.277469	
11.3118	  0.419891	  0.114410	  0.284277	
11.3743	  0.434044	  0.113610	  0.281761	
11.4368	  0.381959	  0.113719	  0.261675	
11.4993	  0.312057	  0.114177	  0.238437	
11.5618	  0.268164	  0.112825	  0.228485	
11.6243	  0.251830	  0.110461	  0.226495	
11.6868	  0.247794	  0.110680	  0.221718	
